<svg viewBox="0 0 3836.1 1050.2" xmlns="http://www.w3.org/2000/svg">
  <g>
    <path fill="#00abb6" class="cls-1" d="M559.5,470.7c71.85,0,115.56-.29,140.93-.87.99-.02.67,6.67.67,11.17,0,54.7,25.7,107.3,68.8,141,49.3,38.6,117.5,48.5,175.7,25.6.97-.38,1.9-.75,2.8-1.1,0,0,0,0,0,0,.8,1.9,1.6,4.1,2.6,6.9,9,29,19.5,55.8,41.7,77.6,18.3,17.9,40.9,30.8,65,39.5,58,21,124.7,16.5,179.5-11.7,25.6-13.2,48.8-33.9,62.6-59.4,31.1,38.9,95.9,65.6,170.8,65.6,8.78,0,15.68,0,21.05,0,24.05,48.04,96.46,83.01,181.95,83.01s66.4-5.6,94.1-15.4c-2.7.9,7,28,8.2,30.6,3.8,8.8,8.8,17.2,14.2,25.1,10.8,16,24.8,30.4,42.3,39,16.3,8.1,34.6,10.7,52.6,11.2,17.5.5,35.8.6,52.7-4.4,6-1.7,6.6,0,9.7,4.5s7.5,8.1,10.3,12.5c37.7,58.6,125.4,99.1,211.3,99.1s158.4-33.3,199.6-83.1c5.5,0,14.7.1,29.4.1,67.7,0,125.3-48.8,146.4-116.7,14,7.4,28.8,13.1,44.5,15.7,56,10.7,115.6-15.3,145.7-63.8,7.9-12.6,13.8-26.4,17.6-40.8,1.8-6.6,2.6-12.4,5-18,39.2,78.5,119.8,132.4,212.9,132.4s238.3-107.7,238.3-240.6c0-57.96-.84-75.45-2.46-78.75,119.01-19,214.54-108.62,242.16-224.55,27.6,8.5,56.9,13.1,87.2,13.1,163.5,0,281-118.8,294.7-270.4v-.8h.1c.4-4.6.7-9.4.9-14.2l3.4-52.9c.57-.38,1.13-.76,1.7-1.15V0H0c0,260,250.5,470.7,559.5,470.7ZM3204.17,556.92c-2.07,2.95-4.87,11.54-8.37,1.18,2.8-.35,5.59-.75,8.37-1.18ZM2370.8,964.6c2,.4,1,.8-.9,1.1.3-.4.6-.7.9-1.1ZM1491.3,764.3c.03.05.06.11.08.16-.74-.05-.88-.1-.08-.16Z"/>
  </g>
</svg>