<svg id="DarkBlueCloud1920" data-name="DarkBlueCloud1920" viewBox="0 0 1919.77 1115" xmlns="http://www.w3.org/2000/svg">
  <g id="DarkBlueCloud1920-1" data-name="DarkBlueCloud1920-1">
    <path fill="#00abb6" class="cls-1" d="M.23,0v588.73h-.23c0,130.29,125.53,235.87,280.37,235.87,36.51,0,58.52-.15,71.15-.45-.12,1.85-.19,3.72-.19,5.61,0,27.41,12.88,53.77,34.48,70.66,24.71,19.34,58.88,24.3,88.05,12.83.48-.19.95-.37,1.4-.55h0c.4.95.8,2.06,1.3,3.46,4.51,14.53,9.77,27.96,20.9,38.89,9.17,8.97,20.5,15.43,32.57,19.79,29.06,10.52,62.49,8.27,89.95-5.86,12.83-6.61,24.45-16.99,31.37-29.77,15.58,19.49,48.06,32.87,85.59,32.87,4.4,0,7.86,0,10.55,0,12.05,24.08,48.34,41.6,91.18,41.6s33.27-2.81,47.15-7.72c-1.35.45,3.51,14.03,4.11,15.33,1.9,4.41,4.41,8.62,7.12,12.58,5.41,8.02,12.43,15.23,21.2,19.54,8.17,4.06,17.34,5.36,26.36,5.61,8.77.25,17.94.3,26.41-2.2,3.01-.85,3.31,0,4.86,2.26,1.55,2.26,3.76,4.06,5.16,6.26,18.89,29.37,62.84,49.66,105.89,49.66s79.38-16.69,100.02-41.64c2.76,0,7.37.05,14.73.05,33.93,0,62.79-24.45,73.36-58.48,7.02,3.71,14.43,6.56,22.3,7.87,28.06,5.36,57.93-7.67,73.01-31.97,3.96-6.31,6.92-13.23,8.82-20.45.9-3.31,1.3-6.21,2.51-9.02,19.64,39.34,60.03,66.35,106.69,66.35s119.42-53.97,119.42-120.57c0-29.03-.42-37.8-1.23-39.46.1-.02.22-.03.36-.05,59.47-9.64,107.18-54.5,120.99-112.47,13.83,4.26,28.51,6.56,43.7,6.56,81.93,0,140.81-59.53,147.68-135.5v-.4h.05c.2-2.31.35-4.71.45-7.12V0H.23ZM747.31,971.73s.03.05.04.08c-.37-.03-.44-.05-.04-.08ZM1187.59,1072.66c.15-.2.3-.35.45-.55,1,.2.5.4-.45.55Z"/>
  </g>
</svg>