<?xml version="1.0" encoding="utf-8"?>
<!-- Generator: Adobe Illustrator 26.0.2, SVG Export Plug-In . SVG Version: 6.00 Build 0)  -->
<svg version="1.1" id="Layer_1" xmlns="http://www.w3.org/2000/svg" xmlns:xlink="http://www.w3.org/1999/xlink" x="0px" y="0px"
	 viewBox="0 0 158.2 101.6" style="enable-background:new 0 0 158.2 101.6;" xml:space="preserve">
<style type="text/css">
	.st0{fill:#A9CF38;}
</style>
<g>
	<path class="st0" d="M48.3,99.5L2.5,53.7c-1.6-1.6-1.6-4.3,0-5.9L48.3,2.1c1.6-1.6,4.3-1.6,5.9,0L61,8.9c1.6,1.7,1.6,4.3-0.1,6
		l-28,26.9h119.7c2.3,0,4.2,1.9,4.2,4.2v9.7c0,2.3-1.9,4.2-4.2,4.2H32.9l28,26.9c1.7,1.6,1.7,4.3,0.1,6l-6.8,6.8
		C52.6,101.1,49.9,101.1,48.3,99.5z"/>
</g>
</svg>
