<?xml version="1.0" encoding="utf-8"?>
<!-- Generator: Adobe Illustrator 26.0.2, SVG Export Plug-In . SVG Version: 6.00 Build 0)  -->
<svg version="1.1" id="Layer_1" xmlns="http://www.w3.org/2000/svg" xmlns:xlink="http://www.w3.org/1999/xlink" x="0px" y="0px"
	 viewBox="0 0 158.2 101.6" style="enable-background:new 0 0 158.2 101.6;" xml:space="preserve">
<g>
	<path d="M109.8,2.1l45.8,45.8c1.6,1.6,1.6,4.3,0,5.9l-45.8,45.8c-1.6,1.6-4.3,1.6-5.9,0l-6.8-6.8c-1.6-1.7-1.6-4.3,0.1-6l28-26.9
		H5.5c-2.3,0-4.2-1.9-4.2-4.2v-9.7c0-2.3,1.9-4.2,4.2-4.2h119.7l-28-26.9c-1.7-1.6-1.7-4.3-0.1-6l6.8-6.8
		C105.6,0.4,108.2,0.4,109.8,2.1z"/>
</g>
</svg>
