<svg width="813" height="813" viewBox="0 0 813 813" fill="none" xmlns="http://www.w3.org/2000/svg">
<rect width="813" height="813" fill="white"/>
<mask id="mask0" mask-type="alpha" maskUnits="userSpaceOnUse" x="59" y="47" width="719" height="719">
<path fill-rule="evenodd" clip-rule="evenodd" d="M59.0015 47.0003H778V766H59.0015V47.0003Z" fill="white"/>
</mask>
<g mask="url(#mask0)">
<path fill-rule="evenodd" clip-rule="evenodd" d="M778.001 406.5C778.001 605.047 617.045 766 418.501 766C219.955 766 59.0015 605.047 59.0015 406.5C59.0015 207.954 219.955 47.0003 418.501 47.0003C617.045 47.0003 778.001 207.954 778.001 406.5Z" fill="black"/>
</g>
<path fill-rule="evenodd" clip-rule="evenodd" d="M349 310.97H405.435V348.033H406.058C409.142 320.979 429.496 308 458.481 308H480.997C509.059 308 528.183 322.459 539.28 352.109C549.149 318.009 561.793 308 595.409 308H613.603C667.571 308 687 339.508 687 393.626V500H627.792V398.443C627.792 372.494 622.241 363.598 587.702 363.598C559.329 363.598 547.607 371.013 547.607 395.845V500H488.396V392.881C488.396 369.532 481.303 363.598 445.531 363.598C420.244 363.598 408.214 371.013 408.214 400.296V500H349V310.97Z" fill="#A9CF38"/>
<path fill-rule="evenodd" clip-rule="evenodd" d="M148 310.97H203.533V346.919H204.15C210.937 316.898 235.001 308 261.839 308C305.034 308 322 330.24 322 382.503C322 387.325 321.694 392.509 321.38 399.182H270.172C270.172 375.094 265.544 363.604 241.789 363.604C221.429 363.604 207.235 372.866 207.235 395.479V500H148V310.97Z" fill="#FEFEFE"/>
</svg>
